<svg width="1192" height="1136" viewBox="0 0 1192 1136" fill="none" xmlns="http://www.w3.org/2000/svg">
<path d="M1069.79 187.387C1071.53 216.883 1079.96 245.925 1096.49 270.416C1202.6 427.633 1183.04 555.038 1051.58 593.692C909.913 635.349 758.899 546.123 714.287 394.4C669.674 242.677 748.355 85.9114 890.026 44.2541C1013.12 8.06033 1063.93 88.2344 1069.79 187.387Z" fill="#E9F2F4" fill-opacity="0.6"/>
<path d="M150.9 857.89C144.044 849.824 133.662 845.515 123.084 845.909C5.89978 850.277 16.4945 744.24 61.8274 691.797C154.136 566.053 228.623 610.538 277.536 699.101C310.817 747.429 322.073 820.884 274.639 875.757C231.447 925.723 187.867 901.383 150.9 857.89Z" fill="#F4E8E8" fill-opacity="0.9"/>
<path d="M912.537 732.956C870.857 754.206 832.273 785.088 816.28 829.053C706.652 1130.43 505.777 1151.14 411.875 957.5C253.38 755.781 304.685 643.113 396.93 498.262C489.175 353.411 798.267 324.482 874.701 412.025C992.504 487.044 1047.69 664.05 912.537 732.956Z" fill="#FEEFD1" fill-opacity="0.6"/>
</svg>
